<?xml version="1.0" encoding="UTF-8"?>
<svg width="600px" height="470px" viewBox="0 0 600 470" version="1.1" xmlns="http://www.w3.org/2000/svg" xmlns:xlink="http://www.w3.org/1999/xlink">
    <!-- Generator: Sketch 48.2 (47327) - http://www.bohemiancoding.com/sketch -->
    <title>MAKAR SANKRANTI Copy 2</title>
    <desc>Created with Sketch.</desc>
    <defs>
        <linearGradient x1="0%" y1="246.844868%" x2="114.429915%" y2="246.844864%" id="linearGradient-1">
            <stop stop-color="#FFFFFF" offset="0%"></stop>
            <stop stop-color="#ECECEC" offset="100%"></stop>
        </linearGradient>
        <linearGradient x1="37.1595372%" y1="63.7209302%" x2="128.142077%" y2="-3.25581395%" id="linearGradient-2">
            <stop stop-color="#5D33E5" offset="0%"></stop>
            <stop stop-color="#58A1FF" offset="100%"></stop>
        </linearGradient>
    </defs>
    <g id="EMAILER" stroke="none" stroke-width="1" fill="none" fill-rule="evenodd">
        <g id="MAKAR-SANKRANTI-Copy-2">
            <g id="KITE" transform="translate(-41.000000, 3.000000)" stroke="#FFFFFF" stroke-linecap="round" stroke-linejoin="round">
                <polyline id="Shape" stroke-width="2" fill="#58A1FF" fill-rule="nonzero" points="458.690426 52.5492537 503.388298 52.5492537 503.388298 0.107462687 451.061702 0.107462687 451.061702 44.919403"></polyline>
                <polygon id="Shape" stroke-width="2" fill="#FE5068" fill-rule="nonzero" points="458.690426 68.4537313 458.690426 44.919403 435.052128 44.919403"></polygon>
                <g id="Group" transform="translate(458.797872, 0.000000)" stroke-width="2">
                    <path d="M44.5904255,0.107462687 L0,44.8119403" id="Shape"></path>
                    <path d="M44.5904255,44.8119403 C44.5904255,20.2029851 24.6053191,0.214925373 0,0.214925373" id="Shape"></path>
                </g>
                <ellipse id="Oval" stroke-width="1.99998082" fill="#FE5068" fill-rule="nonzero" transform="translate(467.071320, 15.800454) rotate(-45.000000) translate(-467.071320, -15.800454) " cx="467.07132" cy="15.8004537" rx="6.76908402" ry="6.77008433"></ellipse>
                <ellipse id="Oval" stroke-width="1.99998082" fill="#FE5068" fill-rule="nonzero" transform="translate(487.821512, 36.508943) rotate(-45.000000) translate(-487.821512, -36.508943) " cx="487.821512" cy="36.5089433" rx="6.76908402" ry="6.77008433"></ellipse>
                <path d="M446.871277,56.6328358 L0.644680851,503.785075" id="Shape" stroke-width="2"></path>
            </g>
            <circle id="Oval" fill="#FFFFFF" fill-rule="nonzero" cx="196" cy="266" r="59"></circle>
            <g id="3-lines" transform="translate(485.000000, 245.000000)" stroke="url(#linearGradient-1)" stroke-linecap="round" stroke-width="2">
                <path d="M0,8.00097656 L27.2490234,0" id="Path-2"></path>
                <path d="M0,45.0009766 L27.2490234,37" id="Path-2-Copy" transform="translate(13.624512, 41.000488) scale(-1, 1) translate(-13.624512, -41.000488) "></path>
                <path d="M0.681034483,22.5 L28.4300579,22.5" id="Path-3"></path>
            </g>
            <g id="3-lines" transform="translate(106.500000, 261.000000) scale(-1, -1) translate(-106.500000, -261.000000) translate(92.000000, 238.000000)" stroke="url(#linearGradient-1)" stroke-linecap="round" stroke-width="2">
                <g id="Group-Copy" transform="translate(14.500000, 23.000000) scale(1, -1) translate(-14.500000, -23.000000) ">
                    <path d="M0,8.00097656 L27.2490234,0" id="Path-2"></path>
                    <path d="M0,45.0009766 L27.2490234,37" id="Path-2-Copy" transform="translate(13.624512, 41.000488) scale(-1, 1) translate(-13.624512, -41.000488) "></path>
                    <path d="M0.681034483,22.5 L28.4300579,22.5" id="Path-3"></path>
                </g>
            </g>
            <text id="+" font-family="Hind-Medium, Hind" font-size="130" font-weight="400" letter-spacing="6" fill="#44B3D2">
                <tspan x="161.68" y="310">+</tspan>
            </text>
            <path d="M164.22,128.36 C164.22,123.419975 161.53336,120.95 156.16,120.95 L145.37,120.95 L145.37,183.48 L156.16,183.48 C161.53336,183.48 164.22,180.706694 164.22,175.16 L164.22,128.36 Z M129.77,107.95 L158.11,107.95 C165.043368,107.95 170.394981,109.66165 174.165,113.085 C177.935019,116.50835 179.82,121.426635 179.82,127.84 L179.82,176.33 C179.82,190.110069 172.843403,197 158.89,197 L129.77,197 L129.77,107.95 Z M198.56,107.95 L241.33,107.95 L241.33,121.6 L214.16,121.6 L214.16,145.13 L237.69,145.13 L237.69,158.78 L214.16,158.78 L214.16,183.35 L241.33,183.35 L241.33,197 L198.56,197 L198.56,107.95 Z M254.09,127.71 C254.09,121.209967 256.256645,116.183351 260.59,112.63 C264.923355,109.076649 271.141626,107.3 279.245,107.3 C287.348374,107.3 293.653311,108.123325 298.16,109.77 L298.16,124.72 C293.133308,122.726657 287.196701,121.73 280.35,121.73 C273.503299,121.73 270.08,124.329974 270.08,129.53 L270.08,133.04 C270.08,135.640013 270.556662,137.654993 271.51,139.085 C272.463338,140.515007 274.326653,141.966659 277.1,143.44 L292.05,151.89 C299.070035,155.703352 302.58,161.509961 302.58,169.31 L302.58,176.98 C302.58,183.5667 300.19669,188.658315 295.43,192.255 C290.663309,195.851685 283.860044,197.65 275.02,197.65 C266.179956,197.65 259.550022,196.696676 255.13,194.79 L255.13,179.71 C260.676694,182.050012 266.959965,183.22 273.98,183.22 C282.560043,183.22 286.85,180.53336 286.85,175.16 L286.85,171.78 C286.85,169.526655 286.395005,167.771673 285.485,166.515 C284.574995,165.258327 282.906679,163.980007 280.48,162.68 L266.18,154.88 C258.11996,150.459978 254.09,144.090042 254.09,135.77 L254.09,127.71 Z M318.72,107.95 L334.45,107.95 L334.45,197 L318.72,197 L318.72,107.95 Z M353.19,128.49 C353.19,121.9033 355.551643,116.725019 360.275,112.955 C364.998357,109.184981 371.38996,107.3 379.45,107.3 C387.51004,107.3 393.879977,108.079992 398.56,109.64 L398.56,124.46 C393.273307,122.553324 387.553364,121.6 381.4,121.6 C373.079958,121.6 368.92,124.416639 368.92,130.05 L368.92,175.68 C368.92,180.966693 372.386632,183.61 379.32,183.61 C382.353349,183.61 384.779991,183.046672 386.6,181.92 L386.6,150.72 L401.94,150.72 L401.94,192.32 C395.179966,195.873351 387.596709,197.65 379.19,197.65 C370.783291,197.65 364.348356,195.895018 359.885,192.385 C355.421644,188.874982 353.19,183.783367 353.19,177.11 L353.19,128.49 Z M458.51,107.95 L473.98,107.95 L473.98,197 L458.25,197 C445.509936,164.499838 438.230009,145.585027 436.41,140.255 C434.589991,134.924973 433.593334,132.000003 433.42,131.48 C433.42,131.653334 433.636664,133.256652 434.07,136.29 C435.196672,144.176706 435.76,153.926609 435.76,165.54 L435.76,197 L420.42,197 L420.42,107.95 L436.41,107.95 C447.416722,135.770139 453.786658,152.149975 455.52,157.09 C457.253342,162.030025 458.531663,165.821653 459.355,168.465 C460.178337,171.108347 460.676666,172.646664 460.85,173.08 C460.85,172.733332 460.633335,171.086681 460.2,168.14 C459.073328,159.47329 458.51,149.636722 458.51,138.63 L458.51,107.95 Z M306.54,222.95 L306.54,236.6 L290.03,236.6 L290.03,312 L274.3,312 L274.3,236.6 L257.79,236.6 L257.79,222.95 L306.54,222.95 Z M314.47,222.95 L357.24,222.95 L357.24,236.6 L330.07,236.6 L330.07,260.13 L353.6,260.13 L353.6,273.78 L330.07,273.78 L330.07,298.35 L357.24,298.35 L357.24,312 L314.47,312 L314.47,222.95 Z M366.73,242.97 C366.73,236.469968 368.961644,231.400018 373.425,227.76 C377.888356,224.119982 384.626622,222.3 393.64,222.3 C399.533363,222.3 404.819977,222.949994 409.5,224.25 L409.5,238.55 C404.299974,237.076659 399.338357,236.34 394.615,236.34 C389.891643,236.34 386.685008,237.01166 384.995,238.355 C383.304992,239.69834 382.46,241.669987 382.46,244.27 L382.46,290.68 C382.46,295.966693 386.229962,298.61 393.77,298.61 C400.096698,298.61 405.469978,297.916674 409.89,296.53 L409.89,310.7 C405.209977,312.000007 399.706698,312.65 393.38,312.65 C375.613244,312.65 366.73,305.803402 366.73,292.11 L366.73,242.97 Z M458.12,222.95 L473.98,222.95 L473.98,312 L458.12,312 L458.12,275.21 L436.41,275.21 L436.41,312 L420.68,312 L420.68,222.95 L436.41,222.95 L436.41,261.3 L458.12,261.3 L458.12,222.95 Z" id="DESIGN-TECH-Copy" fill="url(#linearGradient-2)"></path>
        </g>
    </g>
</svg>