<?xml version="1.0" encoding="UTF-8"?>
<svg width="237px" height="78px" viewBox="0 0 237 78" version="1.1" xmlns="http://www.w3.org/2000/svg" xmlns:xlink="http://www.w3.org/1999/xlink">
    <!-- Generator: Sketch 48.2 (47327) - http://www.bohemiancoding.com/sketch -->
    <title>MAKAR SANKRANTI Copy 3</title>
    <desc>Created with Sketch.</desc>
    <defs></defs>
    <g id="EMAILER" stroke="none" stroke-width="1" fill="none" fill-rule="evenodd">
        <g id="MAKAR-SANKRANTI-Copy-3">
            <g id="Group-2" transform="translate(44.000000, 4.000000)">
                <g id="Group" fill="#FFFFFF" fill-rule="nonzero">
                    <polygon id="Shape" points="17.6047904 0.48125 17.6047904 5.29375 11.7365269 5.29375 9.34131737 5.29375 11.7365269 6.7375 11.7365269 32.003125 6.22754491 32.003125 6.22754491 5.29375 0.359281437 5.29375 0.359281437 0.48125"></polygon>
                    <path d="M25.8682635,20.2125 L25.8682635,32.1234375 L20.3592814,32.1234375 L20.3592814,0.48125 L29.5808383,0.48125 C32.0958084,0.48125 34.011976,1.0828125 35.3293413,2.2859375 C36.6467066,3.4890625 37.3652695,5.1734375 37.3652695,7.459375 L37.3652695,12.8734375 C37.3652695,16.4828125 36.0479042,18.6484375 33.5329341,19.6109375 L32.3353293,19.971875 L34.251497,21.0546875 L38.5628743,32.003125 L32.4550898,32.003125 L28.1437126,20.0921875 L25.8682635,20.0921875 L25.8682635,20.2125 Z M25.8682635,5.29375 L25.8682635,15.7609375 L29.1017964,15.7609375 C30.0598802,15.7609375 30.8982036,15.5203125 31.257485,15.0390625 C31.7365269,14.5578125 31.9760479,13.8359375 31.9760479,12.8734375 L31.9760479,7.940625 C31.9760479,6.1359375 31.0179641,5.29375 29.1017964,5.29375 L25.8682635,5.29375 Z" id="Shape"></path>
                    <polygon id="Shape" points="42.0359281 0.48125 47.5449102 0.48125 47.5449102 32.1234375 42.0359281 32.1234375"></polygon>
                    <path d="M52.5748503,0.48125 L61.7964072,0.48125 C64.3113772,0.48125 66.2275449,1.0828125 67.5449102,2.2859375 C68.8622754,3.4890625 69.5808383,5.29375 69.5808383,7.459375 L69.5808383,15.159375 C69.5808383,17.4453125 68.8622754,19.1296875 67.5449102,20.3328125 C66.2275449,21.5359375 64.3113772,22.1375 61.7964072,22.1375 L58.0838323,22.1375 L58.0838323,31.8828125 L52.5748503,31.8828125 L52.5748503,0.48125 Z M64.1916168,8.18125 C64.1916168,6.3765625 63.2335329,5.4140625 61.3173653,5.4140625 L58.2035928,5.4140625 L58.2035928,17.565625 L61.3173653,17.565625 C63.2335329,17.565625 64.1916168,16.603125 64.1916168,14.7984375 L64.1916168,8.18125 Z" id="Shape"></path>
                    <polygon id="Shape" points="6.22754491 38.740625 11.7365269 38.740625 11.7365269 70.3828125 6.22754491 70.3828125"></polygon>
                    <path d="M30.1796407,38.740625 L35.6886228,38.740625 L35.6886228,70.3828125 L30.1796407,70.3828125 C25.6287425,58.8328125 23.1137725,52.0953125 22.5149701,50.290625 C21.9161677,48.365625 21.5568862,47.403125 21.4371257,47.1625 C21.4371257,47.2828125 21.5568862,47.7640625 21.6766467,48.846875 C22.0359281,51.6140625 22.2754491,55.103125 22.2754491,59.19375 L22.2754491,70.3828125 L16.7664671,70.3828125 L16.7664671,38.740625 L22.3952096,38.740625 C26.2275449,48.60625 28.502994,54.38125 29.1017964,56.1859375 C29.7005988,57.990625 30.1796407,59.3140625 30.4191617,60.2765625 C30.6586826,61.2390625 30.8982036,61.7203125 30.8982036,61.9609375 C30.8982036,61.840625 30.7784431,61.2390625 30.6586826,60.15625 C30.2994012,57.028125 30.0598802,53.5390625 30.0598802,49.6890625 L30.0598802,38.740625 L30.1796407,38.740625 Z" id="Shape"></path>
                </g>
                <text id="STUDIO" font-family="Khand-Regular, Khand" font-size="45.6" font-weight="normal" fill="#ECECEC">
                    <tspan x="40.7185629" y="69.65625">STUDIO</tspan>
                </text>
            </g>
            <g id="KITE-Copy-2" transform="translate(363.000000, -21.000000) scale(-1, 1) rotate(-17.000000) translate(-363.000000, 21.000000) translate(262.000000, -122.000000)"></g>
        </g>
    </g>
</svg>