<?xml version="1.0" encoding="UTF-8"?>
<svg width="237px" height="78px" viewBox="0 0 237 78" version="1.1" xmlns="http://www.w3.org/2000/svg" xmlns:xlink="http://www.w3.org/1999/xlink">
    <!-- Generator: Sketch 48.2 (47327) - http://www.bohemiancoding.com/sketch -->
    <title>MAKAR SANKRANTI Copy 3</title>
    <desc>Created with Sketch.</desc>
    <defs></defs>
    <g id="EMAILER" stroke="none" stroke-width="1" fill="none" fill-rule="evenodd">
        <g id="MAKAR-SANKRANTI-Copy-3">
            <g id="Group-2" transform="translate(44.000000, 4.000000)">
                <g id="Group" fill="#FFFFFF" fill-rule="nonzero">
                    <polygon id="Shape" points="17.6047904 0.48125 17.6047904 5.29375 11.7365269 5.29375 9.34131737 5.29375 11.7365269 6.7375 11.7365269 32.003125 6.22754491 32.003125 6.22754491 5.29375 0.359281437 5.29375 0.359281437 0.48125"></polygon>
                    <path d="M25.8682635,20.2125 L25.8682635,32.1234375 L20.3592814,32.1234375 L20.3592814,0.48125 L29.5808383,0.48125 C32.0958084,0.48125 34.011976,1.0828125 35.3293413,2.2859375 C36.6467066,3.4890625 37.3652695,5.1734375 37.3652695,7.459375 L37.3652695,12.8734375 C37.3652695,16.4828125 36.0479042,18.6484375 33.5329341,19.6109375 L32.3353293,19.971875 L34.251497,21.0546875 L38.5628743,32.003125 L32.4550898,32.003125 L28.1437126,20.0921875 L25.8682635,20.0921875 L25.8682635,20.2125 Z M25.8682635,5.29375 L25.8682635,15.7609375 L29.1017964,15.7609375 C30.0598802,15.7609375 30.8982036,15.5203125 31.257485,15.0390625 C31.7365269,14.5578125 31.9760479,13.8359375 31.9760479,12.8734375 L31.9760479,7.940625 C31.9760479,6.1359375 31.0179641,5.29375 29.1017964,5.29375 L25.8682635,5.29375 Z" id="Shape"></path>
                    <polygon id="Shape" points="42.0359281 0.48125 47.5449102 0.48125 47.5449102 32.1234375 42.0359281 32.1234375"></polygon>
                    <path d="M52.5748503,0.48125 L61.7964072,0.48125 C64.3113772,0.48125 66.2275449,1.0828125 67.5449102,2.2859375 C68.8622754,3.4890625 69.5808383,5.29375 69.5808383,7.459375 L69.5808383,15.159375 C69.5808383,17.4453125 68.8622754,19.1296875 67.5449102,20.3328125 C66.2275449,21.5359375 64.3113772,22.1375 61.7964072,22.1375 L58.0838323,22.1375 L58.0838323,31.8828125 L52.5748503,31.8828125 L52.5748503,0.48125 Z M64.1916168,8.18125 C64.1916168,6.3765625 63.2335329,5.4140625 61.3173653,5.4140625 L58.2035928,5.4140625 L58.2035928,17.565625 L61.3173653,17.565625 C63.2335329,17.565625 64.1916168,16.603125 64.1916168,14.7984375 L64.1916168,8.18125 Z" id="Shape"></path>
                    <polygon id="Shape" points="6.22754491 38.740625 11.7365269 38.740625 11.7365269 70.3828125 6.22754491 70.3828125"></polygon>
                    <path d="M30.1796407,38.740625 L35.6886228,38.740625 L35.6886228,70.3828125 L30.1796407,70.3828125 C25.6287425,58.8328125 23.1137725,52.0953125 22.5149701,50.290625 C21.9161677,48.365625 21.5568862,47.403125 21.4371257,47.1625 C21.4371257,47.2828125 21.5568862,47.7640625 21.6766467,48.846875 C22.0359281,51.6140625 22.2754491,55.103125 22.2754491,59.19375 L22.2754491,70.3828125 L16.7664671,70.3828125 L16.7664671,38.740625 L22.3952096,38.740625 C26.2275449,48.60625 28.502994,54.38125 29.1017964,56.1859375 C29.7005988,57.990625 30.1796407,59.3140625 30.4191617,60.2765625 C30.6586826,61.2390625 30.8982036,61.7203125 30.8982036,61.9609375 C30.8982036,61.840625 30.7784431,61.2390625 30.6586826,60.15625 C30.2994012,57.028125 30.0598802,53.5390625 30.0598802,49.6890625 L30.0598802,38.740625 L30.1796407,38.740625 Z" id="Shape"></path>
                </g>
                <path d="M41.9953629,45.21465 C41.9953629,43.20824 42.6641562,41.6350557 44.0017629,40.49505 C45.3393696,39.3550443 47.2165508,38.78505 49.6333629,38.78505 C52.050175,38.78505 54.0945545,39.0434474 55.7665629,39.56025 L55.7665629,42.66105 C54.185755,42.0834471 52.2553743,41.79465 49.9753629,41.79465 C46.8441472,41.79465 45.2785629,42.9802381 45.2785629,45.35145 L45.2785629,47.54025 C45.2785629,48.6042553 45.4837608,49.440247 45.8941629,50.04825 C46.3045649,50.656253 46.996158,51.2338473 47.9689629,51.78105 L53.2585629,54.74505 C55.7209752,56.0826567 56.9521629,58.1042365 56.9521629,60.80985 L56.9521629,63.27225 C56.9521629,65.3698605 56.23777,66.9962442 54.8089629,68.15145 C53.3801557,69.3066558 51.3205763,69.88425 48.6301629,69.88425 C45.9397494,69.88425 43.8041708,69.580253 42.2233629,68.97225 L42.2233629,65.87145 C44.0169718,66.5402533 46.0537515,66.87465 48.3337629,66.87465 C51.9209808,66.87465 53.7145629,65.6130626 53.7145629,63.08985 L53.7145629,61.17465 C53.7145629,60.171445 53.5321647,59.3810529 53.1673629,58.80345 C52.8025611,58.2258471 52.1489676,57.6786526 51.2065629,57.16185 L45.9625629,54.28905 C43.3177497,52.8602429 41.9953629,50.7322641 41.9953629,47.90505 L41.9953629,45.21465 Z M73.9609629,39.01305 L73.9609629,41.88585 L68.0329629,41.88585 L68.0329629,69.65625 L64.7497629,69.65625 L64.7497629,41.88585 L58.8217629,41.88585 L58.8217629,39.01305 L73.9609629,39.01305 Z M89.4649629,39.01305 L92.7025629,39.01305 L92.7025629,62.90745 C92.7025629,65.0658608 92.0565693,66.8062434 90.7645629,68.12865 C89.4725564,69.4510566 87.5497756,70.11225 84.9961629,70.11225 C82.4425501,70.11225 80.5197693,69.4510566 79.2277629,68.12865 C77.9357564,66.8062434 77.2897629,65.0658608 77.2897629,62.90745 L77.2897629,39.01305 L80.5273629,39.01305 L80.5273629,62.81625 C80.5273629,65.7346646 82.016948,67.19385 84.9961629,67.19385 C87.9753778,67.19385 89.4649629,65.7346646 89.4649629,62.81625 L89.4649629,39.01305 Z M110.942563,45.94425 C110.942563,43.2082363 109.498577,41.84025 106.610563,41.84025 L102.004963,41.84025 L102.004963,66.78345 L106.610563,66.78345 C109.498577,66.78345 110.942563,65.385064 110.942563,62.58825 L110.942563,45.94425 Z M98.7673629,39.01305 L106.792963,39.01305 C109.224975,39.01305 111.064157,39.6362438 112.310563,40.88265 C113.556969,42.1290562 114.180163,43.8010395 114.180163,45.89865 L114.180163,62.67945 C114.180163,64.8378608 113.572169,66.5402438 112.356163,67.78665 C111.140157,69.0330562 109.316175,69.65625 106.884163,69.65625 L98.7673629,69.65625 L98.7673629,39.01305 Z M119.971363,39.01305 L123.208963,39.01305 L123.208963,69.65625 L119.971363,69.65625 L119.971363,39.01305 Z M141.266563,45.85305 C141.266563,42.9650356 139.769378,41.52105 136.774963,41.52105 C133.780548,41.52105 132.283363,42.9650356 132.283363,45.85305 L132.283363,62.81625 C132.283363,65.7346646 133.780548,67.19385 136.774963,67.19385 C139.769378,67.19385 141.266563,65.7346646 141.266563,62.81625 L141.266563,45.85305 Z M129.045763,45.80745 C129.045763,43.6490392 129.699356,41.9010567 131.006563,40.56345 C132.313769,39.2258433 134.23655,38.55705 136.774963,38.55705 C139.313376,38.55705 141.236156,39.2258433 142.543363,40.56345 C143.850569,41.9010567 144.504163,43.6490392 144.504163,45.80745 L144.504163,62.90745 C144.504163,65.0658608 143.850569,66.8062434 142.543363,68.12865 C141.236156,69.4510566 139.305776,70.11225 136.752163,70.11225 C134.19855,70.11225 132.275769,69.4510566 130.983763,68.12865 C129.691756,66.8062434 129.045763,65.0658608 129.045763,62.90745 L129.045763,45.80745 Z" id="STUDIO" fill="#ECECEC"></path>
            </g>
            <g id="KITE-Copy-2" transform="translate(363.000000, -21.000000) scale(-1, 1) rotate(-17.000000) translate(-363.000000, 21.000000) translate(262.000000, -122.000000)"></g>
        </g>
    </g>
</svg>